<svg width="40" height="40" viewBox="0 0 40 40" fill="none" xmlns="http://www.w3.org/2000/svg">
<path d="M21.6506 7.84619L20 0L18.3494 7.84619C17.8065 10.4272 16.5244 12.7945 14.6595 14.6595C12.7945 16.5244 10.4272 17.8065 7.84619 18.3494L0 20L7.84619 21.6506C10.4272 22.1935 12.7945 23.4757 14.6595 25.3406C16.5244 27.2055 17.8065 29.5728 18.3494 32.1539L20 40L21.6506 32.1539C22.1935 29.5728 23.4755 27.2055 25.3404 25.3406C27.2055 23.4757 29.5728 22.1935 32.1539 21.6506L40 20L32.1539 18.3494C29.5728 17.8065 27.2054 16.5244 25.3404 14.6595C23.4755 12.7945 22.1935 10.4272 21.6506 7.84619Z" fill="#0C0C0C"/>
</svg>
