<svg width="114" height="113" viewBox="0 0 114 113" fill="none" xmlns="http://www.w3.org/2000/svg">
<path d="M0.999997 26.634L82.6465 26.6301L68.4375 12.425L79.4482 1.41427L112.426 34.3967L79.4482 67.3742L68.4375 56.3645L82.6455 42.1604L16.5693 42.1604L16.5693 111.414L1 111.414L0.999997 26.634ZM3.47851 29.1106L88.627 29.1067L71.9424 12.426L79.4502 4.91915L79.4482 4.9172L71.9404 12.424L88.625 29.1057L3.47656 29.1096L3.47656 108.937L3.47852 108.937L3.47851 29.1106ZM79.4492 63.8723L71.9424 56.3654L88.627 39.6848L88.624 39.6848L71.9404 56.3645L79.4482 63.8723L79.4492 63.8723Z" fill="#0C0C0C"/>
<path d="M0.999997 26.634L0.999951 25.634L-2.72665e-06 25.634L-2.69487e-06 26.634L0.999997 26.634ZM82.6465 26.6301L82.6465 27.6301L85.061 27.63L83.3535 25.9229L82.6465 26.6301ZM68.4375 12.425L67.7304 11.7179L67.0232 12.4251L67.7305 13.1322L68.4375 12.425ZM79.4482 1.41427L80.1554 0.707214L79.4483 9.45647e-08L78.7411 0.707161L79.4482 1.41427ZM112.426 34.3967L113.133 35.1038L113.84 34.3967L113.133 33.6896L112.426 34.3967ZM79.4482 67.3742L78.7412 68.0814L79.4483 68.7884L80.1553 68.0813L79.4482 67.3742ZM68.4375 56.3645L67.7305 55.6573L67.0232 56.3644L67.7304 57.0716L68.4375 56.3645ZM82.6455 42.1604L83.3525 42.8676L85.0602 41.1604L82.6455 41.1604L82.6455 42.1604ZM16.5693 42.1604L16.5693 41.1604L15.5693 41.1604L15.5693 42.1604L16.5693 42.1604ZM16.5693 111.414L16.5693 112.414L17.5693 112.414L17.5693 111.414L16.5693 111.414ZM1 111.414L0 111.414L3.17865e-08 112.414L1 112.414L1 111.414ZM3.47851 29.1106L3.47847 28.1106L2.47851 28.1106L2.47851 29.1106L3.47851 29.1106ZM88.627 29.1067L88.627 30.1067L91.0415 30.1065L89.334 28.3995L88.627 29.1067ZM71.9424 12.426L71.2353 11.7188L70.528 12.426L71.2354 13.1332L71.9424 12.426ZM79.4502 4.91915L80.1573 5.6263L80.8645 4.9192L80.1573 4.21204L79.4502 4.91915ZM79.4482 4.9172L80.1553 4.21009L79.4483 3.50303L78.7412 4.21004L79.4482 4.9172ZM71.9404 12.424L71.2334 11.7169L70.5261 12.424L71.2334 13.1312L71.9404 12.424ZM88.625 29.1057L88.625 30.1057L91.0394 30.1056L89.332 28.3985L88.625 29.1057ZM3.47656 29.1096L3.47651 28.1096L2.47656 28.1096L2.47656 29.1096L3.47656 29.1096ZM3.47656 108.937L2.47656 108.937L2.47656 109.937L3.47656 109.937L3.47656 108.937ZM3.47852 108.937L3.47852 109.937L4.47852 109.937L4.47852 108.937L3.47852 108.937ZM79.4492 63.8723L79.4492 64.8723L81.8634 64.8723L80.1563 63.1652L79.4492 63.8723ZM71.9424 56.3654L71.2354 55.6582L70.5281 56.3654L71.2353 57.0725L71.9424 56.3654ZM88.627 39.6848L89.334 40.392L91.0416 38.6848L88.627 38.6848L88.627 39.6848ZM88.624 39.6848L88.624 38.6848L88.2099 38.6848L87.917 38.9776L88.624 39.6848ZM71.9404 56.3645L71.2334 55.6573L70.5261 56.3644L71.2333 57.0716L71.9404 56.3645ZM79.4482 63.8723L78.7411 64.5794L79.034 64.8723L79.4482 64.8723L79.4482 63.8723ZM0.999997 26.634L1.00004 27.634L82.6465 27.6301L82.6465 26.6301L82.6464 25.6301L0.999951 25.634L0.999997 26.634ZM82.6465 26.6301L83.3535 25.9229L69.1445 11.7178L68.4375 12.425L67.7305 13.1322L81.9395 27.3373L82.6465 26.6301ZM68.4375 12.425L69.1446 13.1321L80.1553 2.12138L79.4482 1.41427L78.7411 0.707161L67.7304 11.7179L68.4375 12.425ZM79.4482 1.41427L78.7411 2.12132L111.719 35.1037L112.426 34.3967L113.133 33.6896L80.1554 0.707214L79.4482 1.41427ZM112.426 34.3967L111.719 33.6896L78.7411 66.6671L79.4482 67.3742L80.1553 68.0813L113.133 35.1038L112.426 34.3967ZM79.4482 67.3742L80.1553 66.6671L69.1446 55.6573L68.4375 56.3645L67.7304 57.0716L78.7412 68.0814L79.4482 67.3742ZM68.4375 56.3645L69.1445 57.0717L83.3525 42.8676L82.6455 42.1604L81.9385 41.4532L67.7305 55.6573L68.4375 56.3645ZM82.6455 42.1604L82.6455 41.1604L16.5693 41.1604L16.5693 42.1604L16.5693 43.1604L82.6455 43.1604L82.6455 42.1604ZM16.5693 42.1604L15.5693 42.1604L15.5693 111.414L16.5693 111.414L17.5693 111.414L17.5693 42.1604L16.5693 42.1604ZM16.5693 111.414L16.5693 110.414L1 110.414L1 111.414L1 112.414L16.5693 112.414L16.5693 111.414ZM1 111.414L2 111.414L2 26.634L0.999997 26.634L-2.69487e-06 26.634L0 111.414L1 111.414ZM3.47851 29.1106L3.47856 30.1106L88.627 30.1067L88.627 29.1067L88.6269 28.1067L3.47847 28.1106L3.47851 29.1106ZM88.627 29.1067L89.334 28.3995L72.6494 11.7188L71.9424 12.426L71.2354 13.1332L87.9199 29.8138L88.627 29.1067ZM71.9424 12.426L72.6494 13.1331L80.1573 5.6263L79.4502 4.91915L78.7431 4.212L71.2353 11.7188L71.9424 12.426ZM79.4502 4.91915L80.1573 4.21204L80.1553 4.21009L79.4482 4.9172L78.7411 5.62431L78.7431 5.62626L79.4502 4.91915ZM79.4482 4.9172L78.7412 4.21004L71.2334 11.7169L71.9404 12.424L72.6475 13.1312L80.1553 5.62435L79.4482 4.9172ZM71.9404 12.424L71.2334 13.1312L87.918 29.8128L88.625 29.1057L89.332 28.3985L72.6475 11.7169L71.9404 12.424ZM88.625 29.1057L88.625 28.1057L3.47651 28.1096L3.47656 29.1096L3.47661 30.1096L88.625 30.1057L88.625 29.1057ZM3.47656 29.1096L2.47656 29.1096L2.47656 108.937L3.47656 108.937L4.47656 108.937L4.47656 29.1096L3.47656 29.1096ZM3.47656 108.937L3.47656 109.937L3.47852 109.937L3.47852 108.937L3.47852 107.937L3.47656 107.937L3.47656 108.937ZM3.47852 108.937L4.47852 108.937L4.47851 29.1106L3.47851 29.1106L2.47851 29.1106L2.47852 108.937L3.47852 108.937ZM79.4492 63.8723L80.1563 63.1652L72.6495 55.6583L71.9424 56.3654L71.2353 57.0725L78.7421 64.5794L79.4492 63.8723ZM71.9424 56.3654L72.6494 57.0726L89.334 40.392L88.627 39.6848L87.9199 38.9776L71.2354 55.6582L71.9424 56.3654ZM88.627 39.6848L88.627 38.6848L88.624 38.6848L88.624 39.6848L88.624 40.6848L88.627 40.6848L88.627 39.6848ZM88.624 39.6848L87.917 38.9776L71.2334 55.6573L71.9404 56.3645L72.6475 57.0717L89.331 40.392L88.624 39.6848ZM71.9404 56.3645L71.2333 57.0716L78.7411 64.5794L79.4482 63.8723L80.1553 63.1652L72.6475 55.6574L71.9404 56.3645ZM79.4482 63.8723L79.4482 64.8723L79.4492 64.8723L79.4492 63.8723L79.4492 62.8723L79.4482 62.8723L79.4482 63.8723Z" fill="#0C0C0C"/>
</svg>
