<svg width="1804" height="164" viewBox="0 0 1804 164" fill="none" xmlns="http://www.w3.org/2000/svg">
<path d="M65.9983 163.447C55.6737 163.447 46.4609 162.415 38.36 160.35C30.2592 158.444 23.3496 155.426 17.6313 151.296C12.0719 147.007 7.7832 141.845 4.76522 135.809C1.74725 129.614 0.15884 122.387 0 114.127L26.6852 106.264C26.5264 113.889 28.1148 120.242 31.4505 125.325C34.7861 130.249 39.5513 133.903 45.7461 136.285C52.0998 138.668 59.327 139.859 67.4279 139.859C75.2111 139.859 81.7236 138.906 86.9653 137C92.3659 135.094 96.4163 132.553 99.1166 129.376C101.817 126.04 103.167 122.307 103.167 118.178C103.167 113.571 101.499 109.918 98.1636 107.218C94.8279 104.358 90.301 102.055 84.5827 100.308C79.0233 98.4019 72.6697 96.6546 65.5218 95.0662C57.7386 93.319 50.1143 91.4129 42.6487 89.3479C35.3421 87.283 28.6708 84.5033 22.6348 81.0088C16.5989 77.5143 11.7542 73.0668 8.10088 67.6662C4.60638 62.1067 2.85913 55.1177 2.85913 46.6992C2.85913 37.1687 5.24174 28.9884 10.007 22.1583C14.7722 15.1693 21.6818 9.76871 30.7357 5.95654C39.9485 1.98551 50.9085 0 63.6157 0C76.1641 0 87.1242 1.90609 96.4958 5.71826C105.867 9.3716 113.174 14.7722 118.416 21.92C123.658 29.0679 126.437 37.4864 126.755 47.1757L99.3549 54.8001C99.3549 49.5583 98.4813 45.0314 96.734 41.2192C95.1456 37.2482 92.763 33.9919 89.5862 31.4505C86.4094 28.7502 82.5972 26.7647 78.1497 25.4939C73.861 24.2232 68.9369 23.5879 63.3775 23.5879C56.865 23.5879 51.1467 24.4615 46.2227 26.2087C41.4574 27.956 37.8041 30.418 35.2626 33.5948C32.7212 36.6128 31.4505 40.1867 31.4505 44.3166C31.4505 49.3995 33.3566 53.4499 37.1687 56.4679C40.9809 59.4859 45.9844 61.9479 52.1792 63.854C58.5328 65.6012 65.4424 67.3485 72.9079 69.0957C79.7381 70.5253 86.5682 72.2726 93.3984 74.3375C100.387 76.4024 106.82 79.1027 112.698 82.4384C118.575 85.774 123.26 90.301 126.755 96.0192C130.408 101.579 132.235 108.647 132.235 117.224C132.235 126.437 129.773 134.538 124.849 141.527C119.925 148.516 112.539 153.917 102.691 157.729C92.8424 161.541 80.6117 163.447 65.9983 163.447Z" fill="#FCF8F0"/>
<path d="M173.847 160.35V3.0974H204.106V160.35H173.847ZM127.148 28.5913V3.0974H251.043V28.5913H127.148Z" fill="#FCF8F0"/>
<path d="M226.292 160.35L280.616 3.0974H324.694L379.018 160.35H346.138L304.442 27.1618H301.106L258.934 160.35H226.292ZM255.122 127.946V106.741H354.238V127.946H255.122Z" fill="#FCF8F0"/>
<path d="M383.448 160.35V3.0974H444.204C452.464 3.0974 460.009 3.81218 466.839 5.24175C473.828 6.51248 479.944 8.41857 485.185 10.96C490.586 13.5015 495.113 16.6783 498.766 20.4905C502.42 24.1438 505.199 28.4325 507.105 33.3566C509.011 38.1218 509.964 43.443 509.964 49.3201C509.964 54.8795 509.091 59.9624 507.344 64.5688C505.596 69.0163 502.975 72.9079 499.481 76.2436C496.145 79.5792 491.857 82.3589 486.615 84.5827C481.532 86.6476 475.575 88.1566 468.745 89.1097V92.2071C476.052 93.1601 482.008 94.9868 486.615 97.6871C491.38 100.387 495.192 104.12 498.051 108.885C500.911 113.651 503.373 119.766 505.438 127.231L514.968 160.35H481.85L474.464 129.852C473.034 123.499 470.81 118.416 467.792 114.604C464.933 110.791 461.28 108.091 456.832 106.503C452.385 104.914 446.984 104.12 440.63 104.12H413.469V160.35H383.448ZM413.469 81.0088H442.06C453.973 81.0088 463.027 78.785 469.222 74.3375C475.575 69.8899 478.752 63.0598 478.752 53.847C478.752 44.6343 475.734 37.8041 469.698 33.3566C463.821 28.909 454.767 26.6852 442.537 26.6852H413.469V81.0088Z" fill="#FCF8F0"/>
<path d="M555.493 160.35V3.0974H585.752V160.35H555.493ZM508.794 28.5913V3.0974H632.689V28.5913H508.794Z" fill="#FCF8F0"/>
<path d="M705.002 163.447C695.789 163.447 687.45 162.494 679.984 160.588C672.678 158.682 666.245 155.902 660.685 152.249C655.285 148.596 650.758 144.148 647.104 138.906C643.451 133.665 640.671 127.708 638.765 121.037C637.018 114.365 636.144 107.138 636.144 99.3549V3.0974H666.403V98.1636C666.403 106.9 667.833 114.127 670.692 119.845C673.551 125.405 677.84 129.614 683.558 132.473C689.276 135.173 696.424 136.524 705.002 136.524C713.738 136.524 720.886 135.173 726.445 132.473C732.164 129.773 736.452 125.564 739.311 119.845C742.17 114.127 743.6 106.9 743.6 98.1636V3.0974H773.621V99.3549C773.621 119.687 767.823 135.491 756.228 146.769C744.791 157.888 727.716 163.447 705.002 163.447Z" fill="#FCF8F0"/>
<path d="M810.464 114.604V90.5392H847.394C860.102 90.5392 869.553 88.0772 875.747 83.1531C882.101 78.0702 885.278 69.7311 885.278 58.1357C885.278 47.8111 882.339 40.0279 876.462 34.7861C870.585 29.5444 861.531 26.9235 849.3 26.9235H810.464V3.0974H850.015C860.181 3.0974 869.314 4.2887 877.415 6.67131C885.516 9.05392 892.426 12.5484 898.144 17.1548C903.862 21.7612 908.23 27.6383 911.248 34.7861C914.266 41.7751 915.775 49.876 915.775 59.0888C915.775 71.1607 912.996 81.3265 907.436 89.5862C902.036 97.8459 893.935 104.12 883.134 108.409C872.491 112.539 859.228 114.604 843.344 114.604H810.464ZM790.688 160.35V3.0974H820.709V160.35H790.688Z" fill="#FCF8F0"/>
<path d="M947.935 160.35L1002.26 3.0974H1046.34L1100.66 160.35H1067.78L1026.08 27.1618H1022.75L980.577 160.35H947.935ZM976.765 127.946V106.741H1075.88V127.946H976.765Z" fill="#FCF8F0"/>
<path d="M1160.98 163.447C1148.12 163.447 1136.52 160.509 1126.2 154.631C1116.03 148.754 1108.01 139.859 1102.13 127.946C1096.26 116.033 1093.32 101.102 1093.32 83.1531C1093.32 70.1282 1094.98 58.5328 1098.32 48.367C1101.66 38.0424 1106.58 29.3061 1113.09 22.1583C1119.61 14.8516 1127.55 9.3716 1136.92 5.71826C1146.29 1.90609 1157.17 0 1169.56 0C1178.93 0 1187.35 1.11189 1194.82 3.33566C1202.44 5.40059 1209.03 8.49799 1214.59 12.6278C1220.15 16.7577 1224.52 21.7612 1227.7 27.6383C1230.87 33.5154 1232.7 40.1867 1233.18 47.6522L1204.59 56.2296C1204.27 49.0818 1202.36 43.2047 1198.87 38.5983C1195.53 33.9919 1191.16 30.5768 1185.76 28.3531C1180.52 26.1293 1174.8 25.0174 1168.61 25.0174C1159.55 25.0174 1151.77 27.0029 1145.26 30.9739C1138.75 34.945 1133.74 41.1398 1130.25 49.5583C1126.75 57.9769 1125.01 68.7781 1125.01 81.9618C1125.01 91.9688 1126.04 100.626 1128.1 107.932C1130.17 115.08 1133.11 120.957 1136.92 125.564C1140.73 130.011 1145.34 133.347 1150.74 135.571C1156.14 137.636 1162.1 138.668 1168.61 138.668C1176.07 138.668 1182.51 137.397 1187.91 134.856C1193.47 132.314 1197.83 128.343 1201.01 122.943C1204.35 117.542 1206.33 110.712 1206.97 102.452H1175.04V80.0557H1236.75V160.35H1214.83L1216.74 119.131H1212.69C1210.3 128.979 1206.97 137.238 1202.68 143.91C1198.39 150.422 1192.83 155.346 1186 158.682C1179.17 161.859 1170.83 163.447 1160.98 163.447Z" fill="#FCF8F0"/>
<path d="M1250.07 160.35V3.0974H1280.33V160.35H1250.07ZM1269.6 160.35V135.571H1367.53V160.35H1269.6ZM1269.6 91.9688V69.0957H1355.85V91.9688H1269.6ZM1269.6 27.8765V3.0974H1367.05V27.8765H1269.6Z" fill="#FCF8F0"/>
<path d="M1376.43 160.35V3.0974H1415.74L1491.03 120.084H1493.18L1491.27 3.0974H1520.58V160.35H1484.84L1406.21 38.8366H1403.83L1405.74 160.35H1376.43Z" fill="#FCF8F0"/>
<path d="M1608.67 163.447C1596.76 163.447 1586.12 161.779 1576.75 158.444C1567.37 154.949 1559.43 149.866 1552.92 143.195C1546.41 136.365 1541.4 127.946 1537.91 117.939C1534.41 107.932 1532.67 96.4958 1532.67 83.6297C1532.67 70.287 1534.41 58.4534 1537.91 48.1288C1541.56 37.8041 1546.64 29.0679 1553.16 21.92C1559.67 14.6134 1567.45 9.13334 1576.51 5.48001C1585.56 1.82667 1595.65 0 1606.77 0C1615.34 0 1623.29 1.11189 1630.59 3.33566C1637.9 5.55943 1644.17 8.89508 1649.41 13.3426C1654.82 17.6313 1659.02 22.8731 1662.04 29.0679C1665.06 35.1038 1666.65 42.0134 1666.81 49.7966L1638.69 57.1827C1638.85 50.0348 1637.34 44.0783 1634.17 39.3131C1630.99 34.5479 1626.86 30.9739 1621.78 28.5913C1616.85 26.2087 1611.53 25.0174 1605.81 25.0174C1600.73 25.0174 1595.65 26.0499 1590.56 28.1148C1585.64 30.1797 1581.19 33.436 1577.22 37.8835C1573.25 42.3311 1570.07 48.2082 1567.69 55.5148C1565.31 62.6627 1564.12 71.4783 1564.12 81.9618C1564.12 95.3045 1566.02 106.106 1569.84 114.365C1573.81 122.625 1579.21 128.74 1586.04 132.711C1593.03 136.524 1600.89 138.43 1609.63 138.43C1618.52 138.43 1625.59 136.682 1630.83 133.188C1636.07 129.535 1639.88 124.769 1642.27 118.892C1644.65 112.856 1646 106.344 1646.32 99.3549L1672.76 103.882C1672.61 112.142 1671.33 119.925 1668.95 127.231C1666.57 134.538 1662.84 140.892 1657.75 146.292C1652.83 151.693 1646.32 155.902 1638.22 158.92C1630.12 161.938 1620.27 163.447 1608.67 163.447Z" fill="#FCF8F0"/>
<path d="M1716.43 160.35V110.791L1659.48 3.0974H1695.22L1730.96 82.9149H1732.15L1767.65 3.0974H1803.15L1746.68 110.315V160.35H1716.43Z" fill="#FCF8F0"/>
</svg>
