<svg width="20" height="20" viewBox="0 0 20 20" fill="none" xmlns="http://www.w3.org/2000/svg">
<path d="M4.10767 7.17614C3.7542 7.52962 3.75366 8.00135 4.10698 8.35488L9.41028 13.6582C9.76384 14.0117 10.2362 14.0117 10.5897 13.6582L15.893 8.35488C16.2463 8.00135 16.2458 7.52962 15.8923 7.17614C15.7775 7.06138 15.6503 6.98363 15.5187 6.94343C15.3575 6.832 15.1762 6.77356 14.9898 6.77356C14.7392 6.77356 14.4985 6.88099 14.302 7.07739L10.0007 11.3787L5.69866 7.0767C5.50219 6.88039 5.26139 6.77287 5.01089 6.77287C4.82501 6.77293 4.64489 6.83259 4.48401 6.94343C4.35152 6.9834 4.22323 7.06065 4.10767 7.17614Z" fill="#0C0C0C"/>
</svg>
