<svg width="60" height="57" viewBox="0 0 60 57" fill="none" xmlns="http://www.w3.org/2000/svg">
<g clip-path="url(#clip0_1481_701)">
<g clip-path="url(#clip1_1481_701)">
<path d="M19.931 38.1947H40.5469V18.9737H19.931V38.1947Z" fill="#FCF8F0"/>
<path d="M19.9323 57.4157V76.6367H61.1641V38.1947H40.5482V57.4157H19.9323Z" fill="#FCF8F0"/>
<path d="M-0.684244 57.4157H19.9316V38.1947H-0.684244V57.4157Z" fill="#FCF8F0"/>
<path d="M-557.312 76.6367V57.4157H-495.465V38.1947H-474.849V18.9737H-516.081V-0.247314H-474.849V18.9737H-454.233V-0.247314H-433.617V18.9737H-454.233V38.1947H-413.001V18.9737H-103.763V38.1947H-41.9154V57.4157H-21.2995V38.1947H-0.683594V18.9737H19.9323V-0.247314H40.5482V18.9737H61.1641V-77.1313H-598.544V76.6367H-557.312ZM-536.697 38.1947H-557.312V18.9737H-536.697V38.1947ZM-62.5312 18.9737V-0.247314H-21.2995V18.9737H-62.5312Z" fill="#FCF8F0"/>
</g>
</g>
<defs>
<clipPath id="clip0_1481_701">
<rect width="60" height="56.2733" fill="white"/>
</clipPath>
<clipPath id="clip1_1481_701">
<rect width="164.329" height="78.7411" fill="white" transform="matrix(-1 0 0 -1 61.1641 76.6367)"/>
</clipPath>
</defs>
</svg>
