<svg width="100" height="100" viewBox="0 0 100 100" fill="none" xmlns="http://www.w3.org/2000/svg">
<g clip-path="url(#clip0_4253_1122)">
<path d="M50 0C22.4304 0 0 22.4304 0 50C0 77.5696 22.4304 100 50 100C58.7921 100 67.4377 97.6868 75.0061 93.3075L68.75 82.4859C63.0799 85.7666 56.5948 87.5001 50 87.5001C29.3214 87.5001 12.4999 70.6786 12.4999 50C12.4999 29.3214 29.3214 12.4999 50 12.4999C70.6786 12.4999 87.5001 29.3214 87.5001 50V55.4443C87.5001 59.5337 84.8726 62.4999 81.25 62.4999C77.8045 62.4999 74.9999 59.6954 74.9999 56.2499V31.25H66.3602C61.9633 27.4089 56.2829 24.9999 50 24.9999C36.2152 24.9999 24.9999 36.2152 24.9999 50C24.9999 63.7848 36.2152 75.0001 50 75.0001C56.5643 75.0001 62.4993 72.4042 66.9648 68.2512C70.4069 72.3417 75.4979 75.0001 81.25 75.0001C91.7634 75.0001 100 66.4095 100 55.4443V50C100 22.4304 77.5696 0 50 0ZM50 62.4999C43.106 62.4999 37.5 56.8938 37.5 50C37.5 43.106 43.1062 37.5 50 37.5C56.894 37.5 62.4999 43.1062 62.4999 50C62.4999 56.894 56.894 62.4999 50 62.4999Z" fill="black"/>
</g>
<defs>
<clipPath id="clip0_4253_1122">
<rect width="100" height="100" fill="white"/>
</clipPath>
</defs>
</svg>
