<svg width="78" height="78" viewBox="0 0 78 78" fill="none" xmlns="http://www.w3.org/2000/svg">
<g clip-path="url(#clip0_2624_956)">
<path d="M73.2194 42.1898C74.6608 40.7514 75.4554 38.8379 75.4563 36.8016C75.4574 34.7652 74.665 32.8508 73.2252 31.4109C72.4918 30.6775 71.6434 30.1258 70.7369 29.7551L73.8648 26.639C75.3095 25.2013 76.1064 23.2871 76.1087 21.2488C76.1111 19.2106 75.3188 17.2943 73.8776 15.8531L73.7966 15.7721C72.6845 14.66 71.3097 13.9645 69.8691 13.6858C69.9565 13.2227 70.0029 12.7485 70.0033 12.2668C70.0057 10.2288 69.2133 8.31277 67.7722 6.87186L67.6728 6.77246C66.2339 5.33358 64.321 4.54118 62.2862 4.54118C60.9124 4.54118 59.5947 4.90367 58.4405 5.58122C58.0646 4.5635 57.4713 3.6302 56.6822 2.84124L56.6166 2.77539C53.6466 -0.194128 48.8138 -0.194596 45.8435 2.77555L25.4868 23.1326L28.0153 12.6906C29.0143 8.56478 26.7599 4.35768 22.7715 2.90428C20.5269 2.0863 18.0362 2.27262 15.938 3.4147C13.8398 4.55679 12.3315 6.5476 11.7997 8.87671L11.453 10.396C9.79453 17.6606 7.05315 24.9608 3.30497 32.0933C0.496336 37.4378 -0.573346 43.6881 0.29301 49.693C1.18933 55.906 4.01544 61.5427 8.46597 65.993C13.9291 71.4563 21.1901 74.464 28.9154 74.4637H28.935C36.6673 74.4587 43.9329 71.4407 49.3932 65.9659L55.2213 60.1223L73.2194 42.1898ZM46.0787 62.6599C41.5022 67.2486 35.4126 69.778 28.9321 69.7824H28.9155C22.4411 69.7824 16.3548 67.2615 11.7761 62.6829C8.04575 58.9526 5.67715 54.2295 4.92627 49.0246C4.19973 43.9886 5.09573 38.7488 7.44903 34.2708C11.3857 26.7798 14.2685 19.0976 16.0169 11.4377L16.3637 9.91862C16.5999 8.88358 17.2436 8.03407 18.1761 7.52646C19.1086 7.01885 20.1718 6.93958 21.169 7.30285C22.9158 7.93935 23.9032 9.78192 23.4657 11.5889L18.9763 30.1274C18.4437 32.0383 20.9056 34.1669 22.9063 32.3334L49.1538 6.08586C50.2987 4.94066 52.1617 4.94097 53.3048 6.08368L53.3703 6.14937C53.9249 6.70411 54.2303 7.44126 54.2303 8.22569C54.2303 9.01013 53.9247 9.74744 53.3703 10.3022C49.098 14.5743 41.435 22.2374 37.2413 26.431C36.3272 27.345 36.3272 28.8271 37.2413 29.7412C38.1554 30.6553 39.6375 30.6553 40.5514 29.7412C43.1425 27.1501 58.0288 12.264 60.2102 10.0828C60.7647 9.52804 61.5021 9.22266 62.2865 9.22266C63.0709 9.22266 63.8082 9.52804 64.363 10.0828L64.4624 10.1822C65.0179 10.7377 65.3233 11.4762 65.3225 12.2618C65.3215 13.0473 65.0145 13.7852 64.4574 14.3398C58.5884 20.1854 50.5618 28.1773 44.752 33.9675C43.836 34.8799 43.8332 36.3618 44.7454 37.2778C45.2028 37.7369 45.8031 37.9666 46.4037 37.9666C47.0012 37.9666 47.5988 37.7392 48.0554 37.2844C51.9609 33.394 62.6015 22.7946 66.3388 19.0775C67.4837 17.9382 69.3444 17.9404 70.4866 19.0823L70.5674 19.1633C71.1231 19.719 71.4285 20.4575 71.4275 21.2432C71.4266 22.0289 71.1194 22.7668 70.5618 23.3217C64.8689 28.9922 55.8528 37.9716 50.2099 43.5971C49.2941 44.5097 49.2913 45.9916 50.2037 46.9074C50.6611 47.3664 51.2614 47.5961 51.8618 47.5961C52.4593 47.5961 53.0571 47.3686 53.5137 46.9137L64.2469 36.2209L65.773 34.7104C66.9179 33.5772 68.776 33.5824 69.915 34.721C70.4701 35.2761 70.7754 36.014 70.775 36.7989C70.7747 37.5838 70.4683 38.3216 69.9139 38.8748L51.9119 56.8112L46.0787 62.6599Z" fill="#DE1A39"/>
<path d="M70.3965 58.438C70.9053 57.2497 70.3543 55.8737 69.166 55.3652C67.9776 54.8562 66.6017 55.4073 66.093 56.5957C65.3078 58.4299 64.1871 60.0825 62.7621 61.5075C61.0211 63.2484 58.964 64.5228 56.6477 65.2954C55.4213 65.7043 54.7588 67.0299 55.1677 68.2564C55.4948 69.237 56.408 69.8571 57.3879 69.8571C57.6334 69.8571 57.8831 69.8183 58.1288 69.7364C61.1405 68.7318 63.8132 67.0771 66.0724 64.8177C67.9208 62.969 69.3757 60.8227 70.3965 58.438Z" fill="#DE1A39"/>
<path d="M76.5806 59.729C75.3923 59.2196 74.0163 59.7697 73.507 60.958C72.4133 63.5091 70.8538 65.8077 68.8719 67.7896C66.5668 70.0947 63.8554 71.8166 60.8131 72.9072C59.5963 73.3435 58.9634 74.6836 59.3997 75.9006C59.7424 76.8565 60.6429 77.4518 61.6032 77.4518C61.8653 77.4518 62.132 77.4075 62.3931 77.3139C66.091 75.9881 69.3845 73.8973 72.182 71.0997C74.587 68.695 76.4803 65.9033 77.8096 62.8024C78.3189 61.6143 77.7687 60.2383 76.5806 59.729Z" fill="#DE1A39"/>
</g>
<defs>
<clipPath id="clip0_2624_956">
<rect width="78" height="78" fill="white"/>
</clipPath>
</defs>
</svg>
