<svg width="100" height="100" viewBox="0 0 100 100" fill="none" xmlns="http://www.w3.org/2000/svg">
<path d="M27.0469 24L30.2766 69.5103L50.0202 76L69.7638 69.5103L72.9936 24H27.0469Z" fill="#FF7816"/>
<path d="M72.9929 24L69.7631 69.5103L50.0195 76V24H72.9929Z" fill="#FF4B00"/>
<path d="M64.3704 37.8125H41.793L42.3412 45.4297H63.8221L62.5117 63.8732L50.0195 68.0476L37.5273 63.8732L37.1009 57.7188H43.1946L43.3164 59.3945L50.0195 61.6186L56.7227 59.3945L57.2709 51.5234H36.6438L35.2422 31.7188H64.7969L64.3704 37.8125Z" fill="#ECECF1"/>
<path d="M63.8221 45.4297L62.5117 63.8732L50.0195 68.0476V61.6186L56.7227 59.3945L57.2709 51.5234H50.0195V45.4297H63.8221Z" fill="#E2E2E7"/>
<path d="M64.7969 31.7188L64.3704 37.8125H50.0195V31.7188H64.7969Z" fill="#E2E2E7"/>
</svg>
